
<global>
ampeg_release=3.50
</global>

<group>
group_label=Group

<region>
hikey=a#2
hivel=127
lokey=a2
lovel=85
pitch_keycenter=a#2
sample=Cellos_bartok_FF_A#2.opus
</region>

<region>
hikey=a#3
hivel=127
lokey=a3
lovel=85
pitch_keycenter=a#3
sample=Cellos_bartok_FF_A#3.opus
</region>

<region>
hikey=F6
hivel=127
lokey=a4
lovel=85
pitch_keycenter=A#4
sample=Cellos_bartok_FF_A#4.opus
</region>

<region>
hivel=127
key=c2
lovel=85
sample=Cellos_bartok_FF_C2.opus
</region>

<region>
hikey=c3
hivel=127
lokey=b2
lovel=85
pitch_keycenter=c3
sample=Cellos_bartok_FF_C3.opus
</region>

<region>
hikey=c4
hivel=127
lokey=b3
lovel=85
pitch_keycenter=c4
sample=Cellos_bartok_FF_C4.opus
</region>

<region>
hikey=d2
hivel=127
lokey=c#2
lovel=85
pitch_keycenter=d2
sample=Cellos_bartok_FF_D2.opus
</region>

<region>
hikey=d3
hivel=127
lokey=c#3
lovel=85
pitch_keycenter=d3
sample=Cellos_bartok_FF_D3.opus
</region>

<region>
hikey=d4
hivel=127
lokey=c#4
lovel=85
pitch_keycenter=d4
sample=Cellos_bartok_FF_D4.opus
</region>

<region>
hikey=e2
hivel=127
lokey=d#2
lovel=85
pitch_keycenter=e2
sample=Cellos_bartok_FF_E2.opus
</region>

<region>
hikey=e3
hivel=127
lokey=d#3
lovel=85
pitch_keycenter=e3
sample=Cellos_bartok_FF_E3.opus
</region>

<region>
hikey=e4
hivel=127
lokey=d#4
lovel=85
pitch_keycenter=e4
sample=Cellos_bartok_FF_E4.opus
</region>

<region>
hikey=f#2
hivel=127
lokey=f2
lovel=85
offset=2062
pitch_keycenter=f#2
sample=Cellos_bartok_FF_F#2.opus
</region>

<region>
hikey=f#3
hivel=127
lokey=f3
lovel=85
pitch_keycenter=f#3
sample=Cellos_bartok_FF_F#3.opus
</region>

<region>
hikey=f#4
hivel=127
lokey=f4
lovel=85
pitch_keycenter=f#4
sample=Cellos_bartok_FF_F#4.opus
</region>

<region>
hikey=g#2
hivel=127
lokey=g2
lovel=85
pitch_keycenter=g#2
sample=Cellos_bartok_FF_G#2.opus
</region>

<region>
hikey=g#3
hivel=127
lokey=g3
lovel=85
pitch_keycenter=g#3
sample=Cellos_bartok_FF_G#3.opus
</region>

<region>
hikey=g#4
hivel=127
lokey=g4
lovel=85
pitch_keycenter=g#4
sample=Cellos_bartok_FF_G#4.opus
</region>

<region>
hikey=a#2
hivel=84
lokey=a2
lovel=43
pitch_keycenter=a#2
sample=Cellos_bartok_MF_A#2.opus
</region>

<region>
hikey=a#3
hivel=84
lokey=a3
lovel=43
pitch_keycenter=a#3
sample=Cellos_bartok_MF_A#3.opus
</region>

<region>
hikey=F6
hivel=84
lokey=a4
lovel=43
pitch_keycenter=A#4
sample=Cellos_bartok_MF_A#4.opus
</region>

<region>
hivel=84
key=c2
lovel=43
offset=469
sample=Cellos_bartok_MF_C2.opus
</region>

<region>
hikey=c3
hivel=84
lokey=b2
lovel=43
pitch_keycenter=c3
sample=Cellos_bartok_MF_C3.opus
</region>

<region>
hikey=c4
hivel=84
lokey=b3
lovel=43
pitch_keycenter=c4
sample=Cellos_bartok_MF_C4.opus
</region>

<region>
hikey=d2
hivel=84
lokey=c#2
lovel=43
pitch_keycenter=d2
sample=Cellos_bartok_MF_D2.opus
</region>

<region>
hikey=d3
hivel=84
lokey=c#3
lovel=43
pitch_keycenter=d3
sample=Cellos_bartok_MF_D3.opus
</region>

<region>
hikey=d4
hivel=84
lokey=c#4
lovel=43
pitch_keycenter=d4
sample=Cellos_bartok_MF_D4.opus
</region>

<region>
hikey=e2
hivel=84
lokey=d#2
lovel=43
pitch_keycenter=e2
sample=Cellos_bartok_MF_E2.opus
</region>

<region>
hikey=e3
hivel=84
lokey=d#3
lovel=43
pitch_keycenter=e3
sample=Cellos_bartok_MF_E3.opus
</region>

<region>
hikey=e4
hivel=84
lokey=d#4
lovel=43
pitch_keycenter=e4
sample=Cellos_bartok_MF_E4.opus
</region>

<region>
hikey=f#2
hivel=84
lokey=f2
lovel=43
pitch_keycenter=f#2
sample=Cellos_bartok_MF_F#2.opus
</region>

<region>
hikey=f#3
hivel=84
lokey=f3
lovel=43
pitch_keycenter=f#3
sample=Cellos_bartok_MF_F#3.opus
</region>

<region>
hikey=f#4
hivel=84
lokey=f4
lovel=43
pitch_keycenter=f#4
sample=Cellos_bartok_MF_F#4.opus
</region>

<region>
hikey=g#2
hivel=84
lokey=g2
lovel=43
pitch_keycenter=g#2
sample=Cellos_bartok_MF_G#2.opus
</region>

<region>
hikey=g#3
hivel=84
lokey=g3
lovel=43
pitch_keycenter=g#3
sample=Cellos_bartok_MF_G#3.opus
</region>

<region>
hikey=g#4
hivel=84
lokey=g4
lovel=43
pitch_keycenter=g#4
sample=Cellos_bartok_MF_G#4.opus
</region>

<region>
hikey=a#2
hivel=42
lokey=a2
lovel=0
offset=500
pitch_keycenter=a#2
sample=Cellos_bartok_PP_A#2.opus
</region>

<region>
hikey=a#3
hivel=42
lokey=a3
lovel=0
pitch_keycenter=a#3
sample=Cellos_bartok_PP_A#3.opus
</region>

<region>
hikey=F6
hivel=42
lokey=a4
lovel=0
pitch_keycenter=A#4
sample=Cellos_bartok_PP_A#4.opus
</region>

<region>
hivel=42
key=c2
lovel=0
offset=1698
sample=Cellos_bartok_PP_C2.opus
</region>

<region>
hikey=c3
hivel=42
lokey=b2
lovel=0
offset=1177
pitch_keycenter=c3
sample=Cellos_bartok_PP_C3.opus
</region>

<region>
hikey=c4
hivel=42
lokey=b3
lovel=0
pitch_keycenter=c4
sample=Cellos_bartok_PP_C4.opus
</region>

<region>
hikey=d2
hivel=42
lokey=c#2
lovel=0
offset=2294
pitch_keycenter=d2
sample=Cellos_bartok_PP_D2.opus
</region>

<region>
hikey=d3
hivel=42
lokey=c#3
lovel=0
pitch_keycenter=d3
sample=Cellos_bartok_PP_D3.opus
</region>

<region>
hikey=d4
hivel=42
lokey=c#4
lovel=0
pitch_keycenter=d4
sample=Cellos_bartok_PP_D4.opus
</region>

<region>
hikey=e2
hivel=42
lokey=d#2
lovel=0
pitch_keycenter=e2
sample=Cellos_bartok_PP_E2.opus
</region>

<region>
hikey=e3
hivel=42
lokey=d#3
lovel=0
pitch_keycenter=e3
sample=Cellos_bartok_PP_E3.opus
</region>

<region>
hikey=e4
hivel=42
lokey=d#4
lovel=0
offset=267
pitch_keycenter=e4
sample=Cellos_bartok_PP_E4.opus
</region>

<region>
hikey=f#2
hivel=42
lokey=f2
lovel=0
offset=760
pitch_keycenter=f#2
sample=Cellos_bartok_PP_F#2.opus
</region>

<region>
hikey=f#3
hivel=42
lokey=f3
lovel=0
pitch_keycenter=f#3
sample=Cellos_bartok_PP_F#3.opus
</region>

<region>
hikey=f#4
hivel=42
lokey=f4
lovel=0
pitch_keycenter=f#4
sample=Cellos_bartok_PP_F#4.opus
</region>

<region>
hikey=g#2
hivel=42
lokey=g2
lovel=0
pitch_keycenter=g#2
sample=Cellos_bartok_PP_G#2.opus
</region>

<region>
hikey=g#3
hivel=42
lokey=g3
lovel=0
pitch_keycenter=g#3
sample=Cellos_bartok_PP_G#3.opus
</region>

<region>
hikey=g#4
hivel=42
lokey=g4
lovel=0
pitch_keycenter=g#4
sample=Cellos_bartok_PP_G#4.opus
</region>
</group>